<svg width="17" height="16" viewBox="0 0 17 16" fill="none" xmlns="http://www.w3.org/2000/svg">
<g clip-path="url(#clip0_1_162)">
<path d="M8.0321 1.87599C8.06066 1.72306 8.14181 1.58493 8.26149 1.48553C8.38118 1.38614 8.53185 1.33173 8.68743 1.33173C8.843 1.33173 8.99368 1.38614 9.11336 1.48553C9.23305 1.58493 9.3142 1.72306 9.34276 1.87599L10.0434 5.58132C10.0932 5.84475 10.2212 6.08707 10.4108 6.27664C10.6004 6.46621 10.8427 6.59423 11.1061 6.64399L14.8114 7.34466C14.9644 7.37322 15.1025 7.45437 15.2019 7.57405C15.3013 7.69374 15.3557 7.84441 15.3557 7.99999C15.3557 8.15557 15.3013 8.30624 15.2019 8.42592C15.1025 8.54561 14.9644 8.62676 14.8114 8.65532L11.1061 9.35599C10.8427 9.40575 10.6004 9.53377 10.4108 9.72334C10.2212 9.91291 10.0932 10.1552 10.0434 10.4187L9.34276 14.124C9.3142 14.2769 9.23305 14.415 9.11336 14.5144C8.99368 14.6138 8.843 14.6683 8.68743 14.6683C8.53185 14.6683 8.38118 14.6138 8.26149 14.5144C8.14181 14.415 8.06066 14.2769 8.0321 14.124L7.33143 10.4187C7.28166 10.1552 7.15364 9.91291 6.96408 9.72334C6.77451 9.53377 6.53219 9.40575 6.26876 9.35599L2.56343 8.65532C2.4105 8.62676 2.27237 8.54561 2.17297 8.42592C2.07358 8.30624 2.01917 8.15557 2.01917 7.99999C2.01917 7.84441 2.07358 7.69374 2.17297 7.57405C2.27237 7.45437 2.4105 7.37322 2.56343 7.34466L6.26876 6.64399C6.53219 6.59423 6.77451 6.46621 6.96408 6.27664C7.15364 6.08707 7.28166 5.84475 7.33143 5.58132L8.0321 1.87599Z" stroke="white" stroke-width="1.33333" stroke-linecap="round" stroke-linejoin="round"/>
<path d="M14.0208 1.33331V3.99998" stroke="white" stroke-width="1.33333" stroke-linecap="round" stroke-linejoin="round"/>
<path d="M15.3541 2.66669H12.6874" stroke="white" stroke-width="1.33333" stroke-linecap="round" stroke-linejoin="round"/>
<path d="M3.35409 14.6667C4.09047 14.6667 4.68742 14.0697 4.68742 13.3333C4.68742 12.597 4.09047 12 3.35409 12C2.61771 12 2.02075 12.597 2.02075 13.3333C2.02075 14.0697 2.61771 14.6667 3.35409 14.6667Z" stroke="white" stroke-width="1.33333" stroke-linecap="round" stroke-linejoin="round"/>
</g>
<defs>
<clipPath id="clip0_1_162">
<rect width="16" height="16" fill="white" transform="translate(0.687439)"/>
</clipPath>
</defs>
</svg>
