<svg width="20" height="20" viewBox="0 0 20 20" fill="none" xmlns="http://www.w3.org/2000/svg">
<g clip-path="url(#clip0_1_132)">
<path d="M9.1808 2.345C9.21651 2.15384 9.31795 1.98118 9.46755 1.85693C9.61716 1.73269 9.8055 1.66467 9.99997 1.66467C10.1944 1.66467 10.3828 1.73269 10.5324 1.85693C10.682 1.98118 10.7834 2.15384 10.8191 2.345L11.695 6.97667C11.7572 7.30596 11.9172 7.60885 12.1542 7.84581C12.3911 8.08277 12.694 8.2428 13.0233 8.305L17.655 9.18084C17.8461 9.21654 18.0188 9.31798 18.143 9.46758C18.2673 9.61719 18.3353 9.80553 18.3353 10C18.3353 10.1945 18.2673 10.3828 18.143 10.5324C18.0188 10.682 17.8461 10.7835 17.655 10.8192L13.0233 11.695C12.694 11.7572 12.3911 11.9172 12.1542 12.1542C11.9172 12.3912 11.7572 12.694 11.695 13.0233L10.8191 17.655C10.7834 17.8462 10.682 18.0188 10.5324 18.1431C10.3828 18.2673 10.1944 18.3353 9.99997 18.3353C9.8055 18.3353 9.61716 18.2673 9.46755 18.1431C9.31795 18.0188 9.21651 17.8462 9.1808 17.655L8.30497 13.0233C8.24277 12.694 8.08274 12.3912 7.84578 12.1542C7.60882 11.9172 7.30593 11.7572 6.97664 11.695L2.34497 10.8192C2.15381 10.7835 1.98115 10.682 1.8569 10.5324C1.73266 10.3828 1.66464 10.1945 1.66464 10C1.66464 9.80553 1.73266 9.61719 1.8569 9.46758C1.98115 9.31798 2.15381 9.21654 2.34497 9.18084L6.97664 8.305C7.30593 8.2428 7.60882 8.08277 7.84578 7.84581C8.08274 7.60885 8.24277 7.30596 8.30497 6.97667L9.1808 2.345Z" stroke="#0A0A0A" stroke-width="1.66667" stroke-linecap="round" stroke-linejoin="round"/>
<path d="M16.6666 1.66666V4.99999" stroke="#0A0A0A" stroke-width="1.66667" stroke-linecap="round" stroke-linejoin="round"/>
<path d="M18.3333 3.33334H15" stroke="#0A0A0A" stroke-width="1.66667" stroke-linecap="round" stroke-linejoin="round"/>
<path d="M3.33329 18.3333C4.25377 18.3333 4.99996 17.5871 4.99996 16.6667C4.99996 15.7462 4.25377 15 3.33329 15C2.41282 15 1.66663 15.7462 1.66663 16.6667C1.66663 17.5871 2.41282 18.3333 3.33329 18.3333Z" stroke="#0A0A0A" stroke-width="1.66667" stroke-linecap="round" stroke-linejoin="round"/>
</g>
<defs>
<clipPath id="clip0_1_132">
<rect width="20" height="20" fill="white"/>
</clipPath>
</defs>
</svg>
